<svg id="Layer_1" xmlns:rdf="http://www.w3.org/1999/02/22-rdf-syntax-ns#" xmlns="http://www.w3.org/2000/svg" enable-background="new 0 0 360 75.5" xml:space="preserve" viewBox="0 0 303.5 38.83923" height="38.839" width="303.5" version="1.1" xmlns:i="&amp;ns_ai;" y="0px" x="0px" xmlns:cc="http://creativecommons.org/ns#" xmlns:dc="http://purl.org/dc/elements/1.1/"><switch id="switch3419" transform="translate(-27.5,-20.6)"><g id="g3421" i:extraneous="self"><g id="g3423"><g id="g3425" fill="#fff"><path id="path3427" d="m84.6 40.6c0 1.3 0 4.3 0.4 5.4 0.6 1.6 2.5 1.3 3.9 1.4v0.9c-2.1 0-4.2-0.1-6.3-0.2-2 0-3.9 0.1-6 0.2v-0.9c1.3 0 3 0 3.5-1.4 0.4-1.1 0.4-4.1 0.4-5.4v-11.4c0-1.3 0-4.3-0.4-5.4-0.5-1.4-2.2-1.4-3.5-1.4v-0.9c2.1 0 4.1 0.1 6.1 0.2 1.9 0 3.9-0.1 5.8-0.2 4.4 0.2 9.3 1.9 9.3 7 0 5.9-5.7 7.3-10.6 7.3-0.7 0-2.6-0.1-2.7-0.1v4.9zm0-6c0.8 0 1.6 0.2 2.4 0.2 4.2 0 6.3-1.8 6.3-6.2 0-3.9-1.9-6-5.8-6-0.5 0-2.1 0-2.5 0.2-0.3 0.2-0.3 0.7-0.3 1.7v10.1z"/><path id="path3429" d="m109.2 37.2c0.4-0.2 0.3-0.7 0.3-1.2 0-2.8-0.2-4.7-3.6-4.7-2 0-3.7 0.2-3.8 2.3-0.1 0.9-0.6 1.8-1.6 1.8-0.9 0-1.5-0.6-1.5-1.5 0-3 5.4-3.6 7.5-3.6 4.5 0 6.6 1.2 6.6 5.8v6.7c0 1-0.2 4 1.4 4 0.8 0 1.2-0.7 1.7-1.3l0.8 0.4c-0.7 1.3-2.2 2.7-3.7 2.7-1.7 0-3.1-1.3-3.5-2.9-1.9 1.5-4.3 2.9-6.8 2.9-2.2 0-4.2-1.3-4.2-3.6 0-3.4 3.9-4.9 6.5-6l3.9-1.8zm0.4 1c-2.4 1.2-7.1 2.8-7.1 6 0 1.5 0.9 2.9 2.6 2.9 1.6 0 3.3-1.2 4.5-2.3v-6.6z"/><path id="path3431" d="m123.7 43.4c0.1 2.7-0.4 3.9 2.8 4.1v0.8c-1.6 0-3.1-0.1-4.7-0.2-1.5 0-3 0.1-4.5 0.2v-0.8c3-0.2 2.8-1.2 2.8-3.9v-15.5c0-1 0-3.5-0.4-4.3-0.5-1-1.7-0.9-2.6-1.1v-0.8l6.5-1.3v22.8z"/><path id="path3433" d="m134.5 43.4c0 2.7-0.4 3.9 2.7 4.1v0.8c-1.5 0-2.9-0.1-4.4-0.2-1.5 0-3.1 0.1-4.6 0.2v-0.8c3-0.2 2.8-1.2 2.8-3.9v-5c0-1.1 0-4-0.2-4.9-0.3-1.5-1.4-1.3-2.7-1.3v-0.8c2.1-0.2 3.6-0.9 5.6-1.3l0.4 3.3c1.5-2.1 3.5-3.3 6.1-3.3 2.4 0 4.7 0.9 5.6 3.3 1.4-2.1 3.6-3.3 6.2-3.3 1.8 0 3.6 0.5 4.7 1.9 1.1 1.3 1.1 3.7 1.1 5.4v5.7c0 2.7-0.4 3.9 2.8 4.1v0.8c-1.5 0-3-0.1-4.5-0.2-1.5 0-3 0.1-4.5 0.2v-0.8c3-0.2 2.8-1.2 2.8-3.9v-5.1c0-2.8 0.3-6.9-3.8-6.9-1.7 0-3.2 1.2-3.9 2.7-0.5 1.2-0.5 2.7-0.5 4.2v4.9c0.1 2.7-0.4 3.9 2.8 4.1v0.8c-1.5 0-3-0.1-4.4-0.2-1.5 0-3 0.1-4.6 0.2v-0.8c3-0.2 2.8-1.2 2.8-3.9v-5.1c0-2.8 0.3-6.9-3.8-6.9-1.7 0-3.2 1.2-3.9 2.7-0.5 1.2-0.5 2.7-0.5 4.2v5z"/><path id="path3435" d="m166.5 29.2c0-1.3 0-4.3-0.4-5.4-0.4-1.4-2.2-1.4-3.5-1.4v-0.9c1.9 0 3.9 0.1 5.8 0.2 1.6 0 3.2-0.1 4.8-0.2 4.3-0.1 10 1 10 6.4 0 3.7-3 5.3-6.1 6.2v0.1c2.3 0.2 4.3 0.6 5.9 1.7 1.9 1.3 3.1 3.2 3.1 5.6 0 2.7-1.7 4.7-3.9 5.9-2.2 1.1-5.1 1.1-7.5 1.1-1.8 0-3.5-0.1-5.3-0.2-2.3 0-4.6 0.1-6.9 0.2v-0.9c1.3 0 3 0 3.5-1.4 0.4-1.1 0.4-4.1 0.4-5.4v-11.6zm4.2 4.5h1.3c1.8 0 3.3 0.1 4.8-0.9 1.7-1.1 2.1-2.8 2.1-4.8 0-3.6-1.9-5.4-5.6-5.4-0.5 0-2.1-0.1-2.4 0.2-0.3 0.2-0.2 1.4-0.2 1.7v9.2zm0 6.7c0 1.4 0 3.9 0.5 5.1 0.7 1.7 2.7 1.7 4.3 1.7 4 0 5.8-2.4 5.8-6.2 0-2.3-0.8-4.3-2.9-5.4-1.9-1-4.3-0.8-6.3-0.8h-1.3v5.6z"/><path id="path3437" d="m204.3 45.3c-1.9 2.4-4.2 3.4-7.2 3.4-5 0-9.2-3.5-9.2-8.7 0-5.1 3.9-9.7 9.1-9.7 4 0 7.8 2.2 7.8 6.6 0 0.5-0.6 0.4-1 0.4h-11.6l-0.2 1.9c0 3.9 2 8.2 6.4 8.2 2.1 0 3.9-1.4 5.1-3l0.8 0.9zm-5.3-9c0.6 0 2 0.2 2-0.8 0-2.5-1.4-4.1-3.9-4.1-3 0-4.3 2.3-4.8 4.9h6.7z"/><path id="path3439" d="m216.8 37.2c0.4-0.2 0.3-0.7 0.3-1.2 0-2.8-0.2-4.7-3.6-4.7-2 0-3.7 0.2-3.8 2.3-0.1 0.9-0.6 1.8-1.6 1.8-0.9 0-1.5-0.6-1.5-1.5 0-3 5.4-3.6 7.5-3.6 4.5 0 6.6 1.2 6.6 5.8v6.7c0 1-0.2 4 1.4 4 0.8 0 1.2-0.7 1.7-1.3l0.8 0.4c-0.6 1.3-2.2 2.7-3.7 2.7-1.7 0-3.1-1.3-3.5-2.9-1.9 1.5-4.3 2.9-6.8 2.9-2.2 0-4.2-1.3-4.2-3.6 0-3.4 3.9-4.9 6.5-6l3.9-1.8zm0.4 1c-2.4 1.2-7.1 2.8-7.1 6 0 1.5 0.9 2.9 2.6 2.9 1.6 0 3.3-1.2 4.5-2.3v-6.6z"/><path id="path3441" d="m240.3 45.6c-1.7 2.1-4.5 3.1-7.1 3.1-5 0-8.7-3.6-8.7-8.6 0-5.7 4.3-9.8 9.9-9.8 1.6 0 5.3 0.5 5.3 2.7 0 0.7-0.6 1.5-1.3 1.5-1 0-1.5-0.8-1.8-1.6-0.5-1.2-0.8-1.5-2.3-1.5-4.4 0-5.7 4.5-5.7 8 0 3.9 1.3 8 5.8 8 2 0 3.8-1.1 5.1-2.6l0.8 0.8z"/><path id="path3443" d="m247.6 33.9c1.5-2.2 3.7-3.5 6.3-3.5 3.9 0 6.1 1.8 6.1 5.7v7.4c0 2.7-0.4 3.9 2.8 4.1v0.8c-1.6 0-3.1-0.1-4.7-0.2-1.5 0-3 0.1-4.3 0.2v-0.8c3-0.2 2.8-1.2 2.8-3.9v-6c0-2.6-0.2-6-3.7-6-1.7 0-3.7 1.2-4.5 2.8-0.7 1.3-0.7 2.9-0.7 4.4v4.5c0 2.7-0.3 3.9 2.8 4.1v0.8c-1.5 0-3-0.1-4.5-0.2-1.5 0-3.1 0.1-4.7 0.2v-0.8c3-0.2 2.8-1.2 2.8-3.9v-15.5c0-1 0-3.5-0.4-4.3-0.5-1-1.7-0.9-2.6-1.1v-0.8l6.5-1.3v13.3z"/><path id="path3445" d="m272.7 40.6c0 1.3 0 4.3 0.4 5.4 0.6 1.6 2.5 1.3 3.9 1.4v0.9c-2.1 0-4.2-0.1-6.3-0.2-2 0-3.9 0.1-6 0.2v-0.9c1.3 0 3 0 3.4-1.4 0.4-1.1 0.4-4.1 0.4-5.4v-11.4c0-1.3 0-4.3-0.4-5.4-0.5-1.4-2.1-1.4-3.4-1.4v-0.9c2.1 0 4.1 0.1 6.1 0.2 1.9 0 3.9-0.1 5.8-0.2 4.4 0.2 9.3 1.9 9.3 7 0 5.9-5.7 7.3-10.6 7.3-0.7 0-2.6-0.1-2.7-0.1v4.9zm0-6c0.8 0 1.6 0.2 2.4 0.2 4.2 0 6.3-1.8 6.3-6.2 0-3.9-1.9-6-5.8-6-0.5 0-2.1 0-2.5 0.2-0.3 0.2-0.3 0.7-0.3 1.7v10.1z"/><path id="path3447" d="m303.6 39.5c0 5.5-4.5 9.2-9.8 9.2s-9.7-4.1-9.7-9.4c0-5.2 4.8-9 9.7-9 5.1 0.1 9.8 4 9.8 9.2zm-15.4 0c0 3.9 1.1 8.3 5.9 8.3 4.4 0 5.5-4.5 5.5-8.1 0-3.9-1.1-8.4-5.9-8.4-4.4 0-5.5 4.7-5.5 8.2z"/><path id="path3449" d="m306.5 48.5h-0.4l-0.2-5.8h0.8c0.7 2.6 2 5.2 5 5.2 1.8 0 3.4-0.9 3.4-2.8 0-2.3-2.4-3.2-4.1-4.1-2.4-1.2-4.9-2.6-4.9-5.6 0-2.8 2.2-4.9 5-4.9 1.3 0 2.8 0.4 3.9 1l0.8-1h0.5l-0.1 5.1h-0.8c-0.7-2-1.6-4.2-4.2-4.2-1.3 0-2.6 0.8-2.6 2.2 0 2.1 2.2 2.8 3.8 3.7 2.8 1.5 5.4 2.5 5.4 6.2 0 3.3-2.8 5.4-6 5.4-1.5 0-3.2-0.5-4.5-1.5l-0.8 1.1z"/><path id="path3451" d="m319.4 32.2v-0.7c2-1.2 4.1-2.8 4.9-5.1h0.6v4.7h4.6v1.1h-4.6v11.6c0 1.8 0.4 3.7 2.5 3.7 1.4 0 2.2-0.8 2.9-1.8l0.7 0.5c-0.7 1.9-2.8 2.6-4.7 2.6-2.9 0-4.9-1.1-4.9-4.2v-12.4h-2z"/></g><g id="g3453" fill="#009fdd"><path id="path3455" d="m33.9 43.5c0 2.7-0.5 3.9 2.7 4.1v0.8c-1.5 0-2.9-0.1-4.4-0.2-1.6 0-3.1 0.1-4.7 0.2v-0.8c3.1-0.2 2.9-1.2 2.9-3.9v-5c0-1.1 0-4-0.2-4.9-0.3-1.5-1.4-1.3-2.7-1.3v-0.8c2.1-0.2 3.6-0.9 5.6-1.3l0.5 3.3c1.6-2.1 3.5-3.3 6.2-3.3 2.4 0 4.8 0.9 5.6 3.3 1.4-2.2 3.6-3.3 6.2-3.3 1.8 0 3.6 0.5 4.8 2 1.1 1.3 1.1 3.7 1.1 5.4v5.8c0 2.7-0.4 3.9 2.8 4.1v0.8c-1.5 0-3-0.1-4.5-0.2-1.5 0-3 0.1-4.5 0.2v-0.8c3-0.2 2.8-1.2 2.8-3.9v-5.2c0-2.9 0.3-6.9-3.8-6.9-1.7 0-3.3 1.2-4 2.7-0.5 1.2-0.5 2.7-0.5 4.2v4.9c0.1 2.7-0.4 3.9 2.8 4.1v0.8c-1.5 0-3-0.1-4.5-0.2-1.6 0-3.1 0.1-4.6 0.2v-0.8c3.1-0.2 2.8-1.2 2.8-3.9v-5.2c0-2.9 0.3-6.9-3.8-6.9-1.7 0-3.3 1.2-4 2.7-0.5 1.2-0.5 2.7-0.5 4.2v5z"/><path id="path3457" d="m61.7 34.7c-0.3-0.7-0.7-1.7-1.2-2.3-0.4-0.4-1.4-0.9-1.8-0.9v-0.8c1.4 0 2.8 0.1 4.2 0.2 1.6 0 3.1-0.1 4.6-0.2v0.8c-0.6 0.3-2.5 0.2-2.5 1.5 0 1.1 1.2 3.8 1.7 4.9l2.6 6.3 3.1-7.4c0.4-1 1.1-2.7 1.1-3.8s-1.4-1.4-2.3-1.4v-0.8c1.1 0 2.1 0.1 3.2 0.2 0.9 0 1.8-0.1 2.7-0.2v0.8c-1.7 0-1.8 1.2-2.4 2.6l-0.5 1.2-8.6 19.6c-0.5 1.3-1.7 4.4-3.4 4.4-0.7 0.2-1.2-0.4-1.2-1 0-1.9 2.3-1.8 3.1-3 0.7-1 1.3-2.6 1.8-3.8l1.6-3.5-5.8-13.4z"/></g></g></g></switch></svg>
